<?xml version="1.0" encoding="UTF-8"?>
<!-- Created with Inkscape (http://www.inkscape.org/) -->
<svg width="180" height="180" version="1.1" viewBox="0 0 180 180" xml:space="preserve" xmlns="http://www.w3.org/2000/svg"><path d="m9.4998 136.84c26.139-11.768 54.971-21.815 73.786-44.645 8.9386-11.001 16.302-26.252 10.36-40.375-6.7724-15.326-25.438-20.742-40.941-18.974-16.89 1.2316-35.046 12.095-37.943 29.905-4.3199 29.635 10.639 60.026 33.886 78.082 18.729 14.829 46.153 21.48 68.181 10.103 26.517-17.604 43.322-48.907 44.226-80.632-0.0195-13.887-3.6698-28.874-13.889-38.812-16.889-13.278-42.227-9.2191-57.456 4.7032-14.085 11.674-21.361 32.892-12.398 49.774 10.173 19.931 32.802 28.504 53.476 32.749 13.215 2.9036 26.661 4.7572 39.713 8.3849" fill="none" stroke="#ca5500" stroke-linecap="round" stroke-width="19"/></svg>
